<?xml version="1.0" encoding="UTF-8"?>
<svg version="1.1" xmlns="http://www.w3.org/2000/svg" width="512" height="512">
<path d="M0 0 C1.48557548 -0.00570808 2.97114658 -0.01267404 4.45671082 -0.02079773 C8.47742997 -0.03869587 12.49793049 -0.03756712 16.51867747 -0.03185534 C19.88093965 -0.02875867 23.24316012 -0.03486126 26.60541636 -0.04089409 C34.54003962 -0.05492669 42.47455519 -0.05338856 50.40917969 -0.04199219 C58.58277809 -0.03051169 66.75604835 -0.04458826 74.92960352 -0.07138866 C81.95913431 -0.09357112 88.98856229 -0.10017733 96.01812559 -0.09431225 C100.21132586 -0.0909476 104.40431581 -0.09332486 108.5974865 -0.11056328 C112.54159996 -0.12607112 116.48522862 -0.1220348 120.4293232 -0.10325813 C121.87243179 -0.09958283 123.31557662 -0.10264977 124.75865173 -0.11314392 C133.76877668 -0.17363789 140.2577675 0.16259857 147.40258789 6.07983398 C147.84860352 6.61995117 148.29461914 7.16006836 148.75415039 7.71655273 C149.44637695 8.51512695 149.44637695 8.51512695 150.15258789 9.32983398 C154.27265764 16.29721308 153.64006938 23.94150728 153.57446289 31.77514648 C153.57021805 33.69134544 153.57021805 33.69134544 153.56588745 35.64625549 C153.55662046 39.02138852 153.53869105 42.39624478 153.51647949 45.77130127 C153.49591902 49.22373072 153.48686405 52.67618891 153.47680664 56.12866211 C153.45479953 62.88720136 153.42136164 69.64561109 153.37915039 76.40405273 C154.51360013 76.39990467 154.51360013 76.39990467 155.67096806 76.3956728 C174.08291421 76.32938749 192.49483651 76.27975975 210.90687656 76.24861622 C219.81084545 76.2331547 228.71473462 76.21207885 237.61865234 76.17773438 C245.38031997 76.14781012 253.14192986 76.12847253 260.90365356 76.12178725 C265.01252289 76.11788011 269.12122707 76.10871274 273.23004341 76.08686256 C277.10008458 76.06644956 280.96989309 76.06022862 284.83998299 76.06472969 C286.25771856 76.06390664 287.67546219 76.05796958 289.09315109 76.04643631 C298.83502419 75.97109337 306.08367464 76.30575201 313.37915039 83.40405273 C317.87876203 89.58260793 317.9569721 94.77048244 317.91259766 102.27099609 C317.92121323 103.44910355 317.9298288 104.627211 317.93870544 105.84101868 C317.95745676 109.0561245 317.95828127 112.27057698 317.94938397 115.48570704 C317.94425484 118.1769483 317.95158221 120.86809821 317.95885605 123.55933005 C317.97582663 129.91186849 317.97231833 136.26416656 317.95556641 142.61669922 C317.93864812 149.15447353 317.95448119 155.69157998 317.98678929 162.22928137 C318.01354205 167.85757644 318.02074596 173.48566435 318.01227421 179.11401659 C318.00736121 182.46900588 318.01159054 185.82327327 318.03006172 189.17826653 C318.04751286 192.92190868 318.03295702 196.66412943 318.01025391 200.40771484 C318.02194611 201.50874542 318.03363831 202.609776 318.04568481 203.74417114 C317.93937224 212.3759655 315.52674175 217.11338904 309.62915039 223.27905273 C302.7397672 227.78364944 294.88644869 227.68964548 286.87524414 227.59936523 C285.91135269 227.59653534 284.94746124 227.59370544 283.95436096 227.59078979 C280.90832533 227.57969121 277.86259553 227.55460637 274.81665039 227.52905273 C272.73787863 227.51900958 270.65910221 227.50988607 268.58032227 227.50170898 C263.51314908 227.47978579 258.44620139 227.44532829 253.37915039 227.40405273 C253.38962402 228.09031738 253.40009766 228.77658203 253.41088867 229.48364258 C253.45236913 232.58207562 253.47845108 235.68045034 253.50415039 238.77905273 C253.5209082 239.85928711 253.53766602 240.93952148 253.55493164 242.05249023 C253.56137695 243.08374023 253.56782227 244.11499023 253.57446289 245.17749023 C253.58493652 246.13059082 253.59541016 247.08369141 253.60620117 248.06567383 C253.37915039 250.40405273 253.37915039 250.40405273 251.37915039 252.40405273 C248.96557617 252.85498047 248.96557617 252.85498047 246.37915039 252.40405273 C244.67163086 250.21679688 244.67163086 250.21679688 242.99633789 247.18920898 C236.81171205 237.94847998 230.22957278 229.98009416 218.80780029 227.68707275 C201.4886042 225.31345496 183.40899414 226.30303946 166.00041199 227.17042542 C157.09903651 227.56928029 148.25886863 227.91446671 140.93681335 222.04818726 C133.92630068 214.64849543 133.69281878 205.97855453 133.89086914 196.30249023 C133.89794388 194.98487701 133.90501862 193.66726379 133.91230774 192.3097229 C133.93121659 188.84054369 133.98017107 185.37244474 134.03582764 181.90368652 C134.08737379 178.35057442 134.11017227 174.79727911 134.13500977 171.24389648 C134.18564798 164.29633415 134.28354027 157.35172124 134.37915039 150.40405273 C117.21915039 150.40405273 100.05915039 150.40405273 82.37915039 150.40405273 C81.71915039 152.05405273 81.05915039 153.70405273 80.37915039 155.40405273 C78.39865535 158.70867867 76.18724374 161.8553928 74.00415039 165.02905273 C73.42665039 165.88756836 72.84915039 166.74608398 72.25415039 167.63061523 C71.68954102 168.45561523 71.12493164 169.28061523 70.54321289 170.13061523 C70.03226074 170.87907715 69.52130859 171.62753906 68.99487305 172.39868164 C67.2873404 174.51800367 65.67809807 175.95295196 63.37915039 177.40405273 C60.56665039 177.65405273 60.56665039 177.65405273 57.37915039 176.40405273 C54.62036229 173.70626977 52.54412898 170.58636106 50.37915039 167.40405273 C49.95456543 166.78965332 49.52998047 166.17525391 49.0925293 165.54223633 C47.69921132 163.52342743 46.31751644 161.49729212 44.94165039 159.46655273 C44.49208984 158.80381348 44.0425293 158.14107422 43.5793457 157.45825195 C40.37915039 152.64306281 40.37915039 152.64306281 40.37915039 150.40405273 C23.21915039 150.40405273 6.05915039 150.40405273 -11.62084961 150.40405273 C-11.53383789 156.7269043 -11.53383789 156.7269043 -11.44506836 163.17749023 C-11.41285721 166.56302658 -11.38576344 169.94851896 -11.36209869 173.3341217 C-11.33582068 176.89469743 -11.30077652 180.45466679 -11.24365234 184.01489258 C-11.17835278 188.11081421 -11.15456332 192.20610535 -11.13256836 196.30249023 C-11.10676193 197.56330414 -11.08095551 198.82411804 -11.05436707 200.12313843 C-11.05172583 208.51909481 -12.20557758 215.74367284 -18.17851257 222.04818726 C-26.03929569 228.34608433 -35.75928194 227.54325882 -45.24921227 227.07042122 C-80.09836094 223.70790514 -80.09836094 223.70790514 -111.01045227 235.40490723 C-115.37095587 239.78571939 -118.92470918 244.81576397 -121.91333008 250.21679688 C-123.62084961 252.40405273 -123.62084961 252.40405273 -126.20727539 252.85498047 C-128.62084961 252.40405273 -128.62084961 252.40405273 -130.62084961 250.40405273 C-130.84790039 248.06567383 -130.84790039 248.06567383 -130.81616211 245.17749023 C-130.8097168 244.14624023 -130.80327148 243.11499023 -130.79663086 242.05249023 C-130.77987305 240.97225586 -130.76311523 239.89202148 -130.74584961 238.77905273 C-130.73682617 237.69108398 -130.72780273 236.60311523 -130.71850586 235.48217773 C-130.6948837 232.78925122 -130.66194517 230.09676018 -130.62084961 227.40405273 C-131.90660889 227.41452637 -133.19236816 227.425 -134.51708984 227.43579102 C-139.31979553 227.47218569 -144.12248919 227.4950237 -148.92529297 227.51391602 C-150.99790502 227.52392941 -153.0705031 227.53754409 -155.14306641 227.55493164 C-158.13439395 227.57938587 -161.12553355 227.59058274 -164.11694336 227.59936523 C-165.49093544 227.61484909 -165.49093544 227.61484909 -166.89268494 227.63064575 C-174.31714642 227.63191991 -182.31218321 227.47799341 -187.99584961 222.15405273 C-188.62233398 221.59202148 -189.24881836 221.02999023 -189.89428711 220.45092773 C-195.12813873 214.24609006 -195.06619177 208.42988539 -195.05664062 200.66650391 C-195.06671646 199.49014877 -195.0767923 198.31379364 -195.08717346 197.10179138 C-195.11073738 193.88667771 -195.12070301 190.67191351 -195.12262082 187.45672393 C-195.12475893 185.44413459 -195.13117431 183.43160547 -195.13911247 181.41903114 C-195.16683685 174.38657411 -195.17912183 167.35428722 -195.17675781 160.32177734 C-195.17495686 153.78454813 -195.20659221 147.2480627 -195.2539888 140.7110216 C-195.29332431 135.08359506 -195.30930496 129.45641053 -195.30739158 123.82884771 C-195.30662967 120.47419966 -195.31780166 117.12073786 -195.34692574 113.76613426 C-195.37640305 110.02006134 -195.36766455 106.27589034 -195.34960938 102.52978516 C-195.3664679 101.43077881 -195.38332642 100.33177246 -195.4006958 99.19946289 C-195.30993717 91.7689131 -193.59786552 86.98923142 -188.62084961 81.40405273 C-183.64425133 76.99381202 -178.99157399 76.27831483 -172.5211792 76.28379822 C-170.64498901 76.28173622 -170.64498901 76.28173622 -168.730896 76.27963257 C-167.34753394 76.28317147 -165.96417213 76.28680628 -164.58081055 76.29052734 C-163.12211102 76.29080946 -161.66341136 76.29065101 -160.20471191 76.29008484 C-156.2463849 76.28979781 -152.28808816 76.29567929 -148.32976818 76.3026588 C-144.19244223 76.30890804 -140.05511559 76.30949738 -135.91778564 76.3106842 C-128.08390019 76.31379288 -120.25002869 76.32200003 -112.41614938 76.33203369 C-103.49724395 76.34320921 -94.57833785 76.34870891 -85.65942717 76.35372913 C-67.31322674 76.36418302 -48.9670393 76.3817735 -30.62084961 76.40405273 C-30.63084236 75.34075745 -30.63084236 75.34075745 -30.64103699 74.25598145 C-30.70135928 67.54795479 -30.74693069 60.84000477 -30.77628613 54.13176727 C-30.79188589 50.68367359 -30.81301854 47.23580562 -30.84716797 43.7878418 C-30.88625416 39.81619039 -30.9006059 35.84462769 -30.91381836 31.87280273 C-30.92930222 30.64541382 -30.94478607 29.4180249 -30.96073914 28.15344238 C-30.96231478 20.08307653 -30.39065696 12.96413931 -24.87084961 6.59155273 C-24.42225586 6.04885742 -23.97366211 5.50616211 -23.51147461 4.94702148 C-16.51127038 -0.76595511 -8.60126865 -0.02982679 0 0 Z " fill="#62DBFA" transform="translate(194.620849609375,31.595947265625)"/>
<path d="M0 0 C19.3062675 -0.07011478 38.61250913 -0.12300028 57.9188776 -0.15543652 C66.88338035 -0.17089826 75.84780393 -0.19197453 84.81225586 -0.22631836 C92.62666119 -0.25624193 100.44100918 -0.27558004 108.25547022 -0.28226548 C112.39228473 -0.28617273 116.52893521 -0.29534085 120.6656971 -0.31719017 C124.56200268 -0.3376021 128.45807718 -0.34382433 132.35443115 -0.33932304 C133.78184199 -0.34014615 135.20926081 -0.34608384 136.63662529 -0.35761642 C146.40764667 -0.43266853 153.68227837 -0.11994537 161 7 C165.49961164 13.17855519 165.57782171 18.36642971 165.53344727 25.86694336 C165.54206284 27.04505081 165.55067841 28.22315826 165.55955505 29.43696594 C165.57830637 32.65207177 165.57913088 35.86652424 165.57023358 39.08165431 C165.56510445 41.77289556 165.57243182 44.46404548 165.57970566 47.15527731 C165.59667624 53.50781576 165.59316794 59.86011383 165.57641602 66.21264648 C165.55949773 72.75042079 165.5753308 79.28752725 165.6076389 85.82522863 C165.63439166 91.45352371 165.64159557 97.08161162 165.63312382 102.70996386 C165.62821082 106.06495314 165.63244015 109.41922053 165.65091133 112.77421379 C165.66836247 116.51785594 165.65380663 120.2600767 165.63110352 124.00366211 C165.64864182 125.65520798 165.64864182 125.65520798 165.66653442 127.34011841 C165.56022185 135.97191277 163.14759136 140.7093363 157.25 146.875 C150.36061681 151.3795967 142.5072983 151.28559274 134.49609375 151.1953125 C133.5322023 151.1924826 132.56831085 151.18965271 131.57521057 151.18673706 C128.52917494 151.17563848 125.48344514 151.15055364 122.4375 151.125 C120.35872824 151.11495684 118.27995182 151.10583334 116.20117188 151.09765625 C111.13399869 151.07573305 106.067051 151.04127556 101 151 C101.01047363 151.68626465 101.02094727 152.3725293 101.03173828 153.07958984 C101.07321874 156.17802289 101.09930069 159.27639761 101.125 162.375 C101.14175781 163.45523438 101.15851563 164.53546875 101.17578125 165.6484375 C101.18222656 166.6796875 101.18867188 167.7109375 101.1953125 168.7734375 C101.20578613 169.72653809 101.21625977 170.67963867 101.22705078 171.66162109 C101 174 101 174 99 176 C96.58642578 176.45092773 96.58642578 176.45092773 94 176 C92.29248047 173.81274414 92.29248047 173.81274414 90.6171875 170.78515625 C84.43256166 161.54442725 77.85042239 153.57604142 66.4286499 151.28302002 C49.1094538 148.90940223 31.02984375 149.89898673 13.6212616 150.76637268 C4.71988612 151.16522755 -4.12028176 151.51041397 -11.44233704 145.64413452 C-18.45284971 138.2444427 -18.68633161 129.5745018 -18.48828125 119.8984375 C-18.48120651 118.58082428 -18.47413177 117.26321106 -18.46684265 115.90567017 C-18.4479338 112.43649096 -18.39897933 108.968392 -18.34332275 105.49963379 C-18.29177656 101.94651902 -18.26925397 98.39322625 -18.24414062 94.83984375 C-18.19083921 87.89279101 -18.1057287 80.94644765 -18 74 C-16.96939453 73.51188843 -16.96939453 73.51188843 -15.91796875 73.01391602 C-15.01691406 72.57748779 -14.11585938 72.14105957 -13.1875 71.69140625 C-12.29417969 71.26287354 -11.40085937 70.83434082 -10.48046875 70.39282227 C-5.86933859 67.80360006 -2.99951641 63.87807001 -1 59 C-0.67392687 56.21273904 -0.67392687 56.21273904 -0.68115234 53.12988281 C-0.66128265 51.94896057 -0.64141296 50.76803833 -0.62094116 49.55133057 C-0.60938995 48.28142273 -0.59783875 47.01151489 -0.5859375 45.703125 C-0.56657135 44.39921814 -0.5472052 43.09531128 -0.5272522 41.75189209 C-0.47598917 38.29306064 -0.43633256 34.83419034 -0.39910889 31.37518311 C-0.35903247 27.84247268 -0.30795678 24.30992307 -0.2578125 20.77734375 C-0.16112245 13.85168009 -0.07669565 6.92591315 0 0 Z " fill="#FB5794" transform="translate(347,108)"/>
<path d="M0 0 C1.25920761 -0.00137466 2.51841522 -0.00274933 3.81578064 -0.00416565 C5.20858789 -0.00062674 6.60139489 0.00300807 7.99420166 0.00672913 C9.46275328 0.00701124 10.93130503 0.00685279 12.39985657 0.00628662 C16.38504215 0.00599959 20.37019766 0.01188121 24.35537624 0.01886058 C28.52072942 0.02510968 32.68608328 0.02569915 36.85144043 0.02688599 C44.73844979 0.0299947 52.62544529 0.03820191 60.51244855 0.04823548 C69.49181233 0.05941086 78.47117678 0.06491066 87.45054579 0.06993091 C105.92116029 0.0803849 124.39176189 0.09797547 142.86236572 0.12025452 C142.86379074 0.84164612 142.86521576 1.56303772 142.86668396 2.30628967 C142.8845749 9.13237008 142.92636803 15.95793951 142.99445629 22.78369141 C143.02862706 26.29228625 143.05382058 29.8004503 143.05792236 33.30921936 C143.06305224 37.35091535 143.10826203 41.39132772 143.15533447 45.43275452 C143.1494355 47.30664856 143.1494355 47.30664856 143.14341736 49.21839905 C143.28999473 58.02822156 144.91162218 63.27347791 151.23736572 69.43275452 C153.35938645 70.7969107 155.22253341 71.7626197 157.52642822 72.72572327 C158.6272876 73.18591858 159.72814697 73.64611389 160.86236572 74.12025452 C160.97880475 81.77037776 161.06735487 89.4204078 161.12142658 97.07121849 C161.14739393 100.62483146 161.18255056 104.17783312 161.23956299 107.73109436 C161.30486256 111.82701599 161.32865201 115.92230713 161.35064697 120.01869202 C161.3764534 121.27950592 161.40225983 122.54031982 161.42884827 123.83934021 C161.4314895 132.23529659 160.27763775 139.45987462 154.30470276 145.76438904 C146.44391964 152.06228611 136.72393339 151.2594606 127.23400307 150.786623 C92.38485439 147.42410692 92.38485439 147.42410692 61.47276306 159.12110901 C57.11225946 163.50192117 53.55850616 168.53196575 50.56988525 173.93299866 C48.86236572 176.12025452 48.86236572 176.12025452 46.27593994 176.57118225 C43.86236572 176.12025452 43.86236572 176.12025452 41.86236572 174.12025452 C41.63531494 171.78187561 41.63531494 171.78187561 41.66705322 168.89369202 C41.67349854 167.86244202 41.67994385 166.83119202 41.68658447 165.76869202 C41.70334229 164.68845764 41.7201001 163.60822327 41.73736572 162.49525452 C41.74638916 161.40728577 41.7554126 160.31931702 41.76470947 159.19837952 C41.78833164 156.505453 41.82127016 153.81296196 41.86236572 151.12025452 C40.57660645 151.13072815 39.29084717 151.14120178 37.96612549 151.1519928 C33.1634198 151.18838747 28.36072615 151.21122548 23.55792236 151.2301178 C21.48531031 151.2401312 19.41271223 151.25374587 17.34014893 151.27113342 C14.34882138 151.29558765 11.35768178 151.30678452 8.36627197 151.31556702 C6.99227989 151.33105087 6.99227989 151.33105087 5.5905304 151.34684753 C-1.83393109 151.34812169 -9.82896788 151.1941952 -15.51263428 145.87025452 C-16.13911865 145.30822327 -16.76560303 144.74619202 -17.41107178 144.16712952 C-22.6449234 137.96229185 -22.58297644 132.14608717 -22.57342529 124.38270569 C-22.58350113 123.20635056 -22.59357697 122.02999542 -22.60395813 120.81799316 C-22.62752205 117.6028795 -22.63748768 114.38811529 -22.63940549 111.17292571 C-22.64154359 109.16033637 -22.64795898 107.14780725 -22.65589714 105.13523293 C-22.68362152 98.10277589 -22.6959065 91.070489 -22.69354248 84.03797913 C-22.69174153 77.50074991 -22.72337688 70.96426448 -22.77077347 64.42722338 C-22.81010898 58.79979685 -22.82608963 53.17261231 -22.82417625 47.54504949 C-22.82341434 44.19040144 -22.83458633 40.83693964 -22.8637104 37.48233604 C-22.89318772 33.73626312 -22.88444922 29.99209212 -22.86639404 26.24598694 C-22.88325256 25.14698059 -22.90011108 24.04797424 -22.91748047 22.91566467 C-22.82672184 15.48511488 -21.11465019 10.70543321 -16.13763428 5.12025452 C-11.14808462 0.69853634 -6.48646602 -0.00545999 0 0 Z " fill="#00F1A6" transform="translate(22.13763427734375,107.87974548339844)"/>
<path d="M0 0 C8.20215265 5.69637167 13.44386818 13.46318746 15.21484375 23.27734375 C16.48081587 33.50582304 14.71788053 42.20258648 8.74609375 50.6796875 C4.64516799 55.63211813 0.33833254 58.60328883 -5.25390625 61.6796875 C-4.51342041 61.69950684 -3.77293457 61.71932617 -3.01000977 61.73974609 C0.38817786 61.83578356 3.78581585 61.94514066 7.18359375 62.0546875 C8.34826172 62.085625 9.51292969 62.1165625 10.71289062 62.1484375 C22.85478486 62.55886773 32.50936584 64.11967651 41.79296875 72.53515625 C48.7593296 79.99273485 51.83829151 88.35405712 51.90722656 98.4921875 C51.91683411 99.636875 51.92644165 100.7815625 51.93634033 101.9609375 C51.94271515 103.80171875 51.94271515 103.80171875 51.94921875 105.6796875 C51.95491882 106.948125 51.9606189 108.2165625 51.9664917 109.5234375 C51.97592909 112.20316147 51.98283306 114.88277378 51.98632812 117.5625 C51.99182183 120.98894279 52.01588253 124.41499004 52.04430008 127.84130859 C52.06743823 131.12073809 52.06937574 134.40018781 52.07421875 137.6796875 C52.08656555 138.906875 52.09891235 140.1340625 52.1116333 141.3984375 C52.1086322 142.543125 52.1056311 143.6878125 52.10253906 144.8671875 C52.10800751 146.37345703 52.10800751 146.37345703 52.11358643 147.91015625 C51.67521391 151.21385848 50.76374682 153.03842732 48.74609375 155.6796875 C45.59559167 157.67634295 43.12595644 157.93067632 39.43261719 157.93365479 C37.81752258 157.94211426 37.81752258 157.94211426 36.1697998 157.95074463 C34.99357056 157.94669617 33.81734131 157.94264771 32.60546875 157.93847656 C31.36285278 157.9419812 30.12023682 157.94548584 28.83996582 157.94909668 C25.43499848 157.95639131 22.03027416 157.95468084 18.62532043 157.94833851 C15.06108271 157.94327309 11.49685533 157.94797147 7.93261719 157.95111084 C1.94724667 157.9547489 -4.03807448 157.94995558 -10.0234375 157.94042969 C-16.9421751 157.92954542 -23.86079483 157.93307111 -30.77952957 157.9440825 C-36.72103509 157.95315993 -42.66250514 157.95443842 -48.60401535 157.94920516 C-52.1520862 157.94608796 -55.70010166 157.94566923 -59.24816895 157.95227814 C-63.20325295 157.95913065 -67.15820504 157.94963135 -71.11328125 157.93847656 C-72.2895105 157.94252502 -73.46573975 157.94657349 -74.6776123 157.95074463 C-75.75434204 157.94510498 -76.83107178 157.93946533 -77.94042969 157.93365479 C-78.87546326 157.93290073 -79.81049683 157.93214668 -80.77386475 157.93136978 C-83.42378439 157.66244774 -85.01412529 157.09965632 -87.25390625 155.6796875 C-89.99903714 152.07408485 -90.63126784 149.43124853 -90.64208984 144.9465332 C-90.65154633 143.81798416 -90.66100281 142.68943512 -90.67074585 141.52668762 C-90.66467316 140.31518539 -90.65860046 139.10368317 -90.65234375 137.85546875 C-90.65521393 136.59888962 -90.65808411 135.34231049 -90.66104126 134.0476532 C-90.66308213 131.38863103 -90.65906527 128.7304369 -90.64501953 126.0715332 C-90.62801492 122.69034788 -90.6377172 119.3098817 -90.65573692 115.92872334 C-90.66930079 112.67511427 -90.65974722 109.42158729 -90.65234375 106.16796875 C-90.65841644 104.96658768 -90.66448914 103.7652066 -90.67074585 102.52742004 C-90.57126146 90.4890147 -87.93437122 80.87280206 -79.625 71.92578125 C-71.9718761 64.84087073 -63.19257249 62.71716603 -52.98046875 62.36328125 C-51.82675781 62.32138672 -50.67304688 62.27949219 -49.484375 62.23632812 C-48.29457031 62.19701172 -47.10476562 62.15769531 -45.87890625 62.1171875 C-44.66589844 62.07400391 -43.45289063 62.03082031 -42.203125 61.98632812 C-39.22015593 61.88063237 -36.23710883 61.77853429 -33.25390625 61.6796875 C-33.85936279 61.29079346 -34.46481934 60.90189941 -35.08862305 60.5012207 C-35.88953369 59.97874756 -36.69044434 59.45627441 -37.515625 58.91796875 C-38.30670654 58.40532471 -39.09778809 57.89268066 -39.9128418 57.36450195 C-47.30844714 52.04204158 -52.02968432 44.76702549 -53.8203125 35.86328125 C-55.10250505 25.51126351 -53.13733041 16.1002245 -46.9140625 7.64453125 C-34.88035501 -6.59771549 -16.05938139 -9.40740192 0 0 Z " fill="#FE5593" transform="translate(275.25390625,322.3203125)"/>
<path d="M0 0 C8.44581941 5.98735666 15.12800855 13.61895652 17 24 C17.98704755 35.43456624 16.0294627 45.16537818 8.71484375 54.2109375 C5.04287759 58.04182702 1.05799876 61.31400041 -4 63 C-3.29504395 63.01981934 -2.59008789 63.03963867 -1.86376953 63.06005859 C1.38281211 63.15631269 4.6288365 63.26557876 7.875 63.375 C8.98359375 63.4059375 10.0921875 63.436875 11.234375 63.46875 C24.66380843 63.94273 35.85980239 65.83856997 45.4296875 75.96484375 C50.24757636 82.20892359 53.10537586 89.09692127 53.17700195 96.95263672 C53.19625481 98.79001907 53.19625481 98.79001907 53.21589661 100.66452026 C53.22406369 102.00290522 53.23150749 103.34129476 53.23828125 104.6796875 C53.24235678 105.35471439 53.2464323 106.02974129 53.25063133 106.72522354 C53.27146865 110.29711855 53.28578127 113.86897538 53.29516602 117.44091797 C53.30623494 121.12534783 53.34064601 124.80917449 53.38033772 128.49339104 C53.40650773 131.33132026 53.41485804 134.16910566 53.41844749 137.00714493 C53.42331135 138.36510423 53.43491982 139.72305719 53.45348549 141.08089828 C53.47788346 142.98330842 53.47449146 144.88601301 53.4699707 146.78857422 C53.47583694 147.86984589 53.48170319 148.95111755 53.48774719 150.06515503 C52.88238562 153.70770265 51.53675207 155.3680313 49 158 C46.47430501 159.26284749 44.72384685 159.13435424 41.89579773 159.14717102 C40.81484833 159.15432632 39.73389893 159.16148163 38.62019348 159.16885376 C37.42899399 159.17154266 36.23779449 159.17423157 35.01049805 159.17700195 C33.76002686 159.18357315 32.50955566 159.19014435 31.22119141 159.19691467 C27.78512087 159.21327109 24.34911196 159.22487724 20.91301703 159.2331202 C18.76649531 159.23826979 16.61997791 159.24434554 14.47345924 159.25063133 C7.75814662 159.26968439 1.042845 159.2839152 -5.67248946 159.2922433 C-13.42542766 159.30201679 -21.17808043 159.32833843 -28.93091804 159.36874419 C-34.92249683 159.39889963 -40.91399377 159.41371162 -46.90564698 159.41702431 C-50.4846288 159.4193755 -54.06330574 159.42834421 -57.64220619 159.45348549 C-61.63575852 159.48108617 -65.62867284 159.47693692 -69.62231445 159.4699707 C-70.80744125 159.48278076 -71.99256805 159.49559082 -73.21360779 159.50878906 C-81.22823053 159.45770441 -81.22823053 159.45770441 -85.21110535 157.09562683 C-88.11832993 153.68991603 -88.13623613 151.65804065 -88.17700195 147.24023438 C-88.18983719 146.03137573 -88.20267242 144.82251709 -88.21589661 143.57702637 C-88.22328354 142.26254517 -88.23067047 140.94806396 -88.23828125 139.59375 C-88.24439454 138.58919518 -88.24439454 138.58919518 -88.25063133 137.56434631 C-88.27150697 134.01262724 -88.28579639 130.46094686 -88.29516602 126.90917969 C-88.30617218 123.26219993 -88.34049887 119.61584021 -88.38033772 115.96907806 C-88.40666389 113.14810154 -88.41487237 110.32726833 -88.41844749 107.50617981 C-88.42561281 105.51554629 -88.45199359 103.52501133 -88.47883606 101.5345459 C-88.45406119 91.08390229 -86.25385842 81.85032954 -79 74 C-68.52647927 64.44995099 -57.13513774 63.92885365 -43.5625 63.4375 C-42.44939453 63.39431641 -41.33628906 63.35113281 -40.18945312 63.30664062 C-37.45974156 63.20120112 -34.72994857 63.09907971 -32 63 C-32.61125732 62.60603027 -33.22251465 62.21206055 -33.85229492 61.80615234 C-34.65771729 61.27973145 -35.46313965 60.75331055 -36.29296875 60.2109375 C-37.08985107 59.69321777 -37.8867334 59.17549805 -38.70776367 58.64208984 C-45.46458283 53.80170582 -50.44099504 46.20298871 -52 38 C-52.94716149 26.7423091 -51.66082961 16.94378417 -44.75 7.625 C-32.19862748 -4.35585559 -15.87421536 -7.89477644 0 0 Z " fill="#61DAFA" transform="translate(88,321)"/>
<path d="M0 0 C7.26600428 5.2156327 12.17627074 12.59580751 14.25 21.3125 C15.41443065 33.55864711 14.07675486 42.69332016 6.2265625 52.23046875 C2.73851899 55.90463316 -1.20891726 59.04195863 -5.75 61.3125 C-5.07533691 61.33231934 -4.40067383 61.35213867 -3.70556641 61.37255859 C-0.59504139 61.4688811 2.51490789 61.5781181 5.625 61.6875 C6.68589844 61.7184375 7.74679687 61.749375 8.83984375 61.78125 C20.75459197 62.21982969 32.34081991 63.63777202 41.25 72.3125 C49.10294485 82.4291764 50.71209143 90.86850838 50.68359375 103.48046875 C50.68816264 104.84711464 50.69347031 106.21375824 50.69947815 107.58039856 C50.70836864 110.4305664 50.70603014 113.28045336 50.69604492 116.13061523 C50.6845158 119.7757573 50.70484593 123.41993624 50.73396206 127.0649519 C50.75233082 129.88147585 50.75203114 132.69776871 50.74632454 135.51433754 C50.74609761 137.50903579 50.76296913 139.50371241 50.78013611 141.49833679 C50.77075516 142.71342422 50.76137421 143.92851166 50.75170898 145.18041992 C50.75154282 146.24661057 50.75137665 147.31280121 50.75120544 148.41130066 C50.12730013 152.02274124 48.76400526 153.69570579 46.25 156.3125 C43.72430501 157.57534749 41.97384685 157.44685424 39.14579773 157.45967102 C38.06484833 157.46682632 36.98389893 157.47398163 35.87019348 157.48135376 C34.67899399 157.48404266 33.48779449 157.48673157 32.26049805 157.48950195 C31.01002686 157.49607315 29.75955566 157.50264435 28.47119141 157.50941467 C25.03512087 157.52577109 21.59911196 157.53737724 18.16301703 157.5456202 C16.01649531 157.55076979 13.86997791 157.55684554 11.72345924 157.56313133 C5.00814662 157.58218439 -1.707155 157.5964152 -8.42248946 157.6047433 C-16.17542766 157.61451679 -23.92808043 157.64083843 -31.68091804 157.68124419 C-37.67249683 157.71139963 -43.66399377 157.72621162 -49.65564698 157.72952431 C-53.2346288 157.7318755 -56.81330574 157.74084421 -60.39220619 157.76598549 C-64.38575852 157.79358617 -68.37867284 157.78943692 -72.37231445 157.7824707 C-73.55744125 157.79528076 -74.74256805 157.80809082 -75.96360779 157.82128906 C-83.97823053 157.77020441 -83.97823053 157.77020441 -87.96110535 155.40812683 C-90.86832993 152.00241603 -90.88623613 149.97054065 -90.92700195 145.55273438 C-90.93983719 144.34387573 -90.95267242 143.13501709 -90.96589661 141.88952637 C-90.97328354 140.57504517 -90.98067047 139.26056396 -90.98828125 137.90625 C-90.99439454 136.90169518 -90.99439454 136.90169518 -91.00063133 135.87684631 C-91.02150697 132.32512724 -91.03579639 128.77344686 -91.04516602 125.22167969 C-91.05617218 121.57469993 -91.09049887 117.92834021 -91.13033772 114.28157806 C-91.15666389 111.46060154 -91.16487237 108.63976833 -91.16844749 105.81867981 C-91.17561281 103.82804629 -91.20199359 101.83751133 -91.22883606 99.8470459 C-91.20112504 88.15786209 -88.4979613 80.08552876 -80.3828125 71.58203125 C-70.1720318 62.78015649 -59.1792545 62.21579942 -46.3125 61.75 C-45.19939453 61.70681641 -44.08628906 61.66363281 -42.93945312 61.61914062 C-40.20974156 61.51370112 -37.47994857 61.41157971 -34.75 61.3125 C-35.45608398 60.8577832 -36.16216797 60.40306641 -36.88964844 59.93457031 C-46.50356394 53.66002664 -52.07792156 46.61976978 -54.75 35.3125 C-55.83088607 25.92457939 -54.57473931 16.95027705 -49.0625 9.125 C-36.35964784 -6.24886753 -17.48441841 -10.73040394 0 0 Z " fill="#FFE076" transform="translate(461.75,322.6875)"/>
<path d="M0 0 C6.63437137 2.78430445 11.25387784 8.26966083 16.0703125 13.44140625 C19.66489315 11.9368872 21.79869905 9.83160377 24.4453125 7.00390625 C28.83380188 2.54370953 32.09918211 -0.17344722 38.4453125 -0.99609375 C44.41385094 -0.2757529 49.04420671 1.92348573 53.0078125 6.50390625 C56.10963004 10.92164638 56.50733633 14.10971557 56.0703125 19.44140625 C53.85705521 27.11615455 47.7359735 32.16498914 42.0703125 37.44140625 C43.5061586 40.77937836 45.29163061 42.79549529 47.9453125 45.25390625 C52.70134877 49.93211647 55.70118704 53.53454329 56.5703125 60.37890625 C56.3038235 64.953634 54.7514972 68.7435032 52.0703125 72.44140625 C46.94773338 76.51856106 42.7512976 77.83737137 36.328125 77.703125 C28.71122362 76.82019699 23.05040159 68.59865266 18.0703125 63.44140625 C14.22619503 65.00752818 11.91081041 67.46234746 9.0703125 70.44140625 C2.72468299 77.09657866 2.72468299 77.09657866 -2.515625 77.77734375 C-8.52388126 77.861493 -12.27240599 77.64431884 -16.9296875 73.44140625 C-21.5539375 68.19225761 -22.30775745 65.08020843 -22.19140625 58.1796875 C-21.43483074 50.26387512 -13.34081862 44.66665882 -7.9296875 39.44140625 C-9.92052716 34.54348822 -13.8388192 31.52976641 -17.6171875 27.9765625 C-21.62838334 23.57915355 -22.40744758 19.50315991 -22.234375 13.71484375 C-21.60918237 9.04994493 -19.68311459 5.97371532 -16.1640625 2.8984375 C-10.8053116 -0.86745634 -6.29573065 -1.82244835 0 0 Z " fill="#EAF4FD" transform="translate(403.9296875,144.55859375)"/>
<path d="M0 0 C4.26832981 -0.09965569 8.53602469 -0.17183391 12.80517578 -0.21972656 C14.25418917 -0.23971295 15.70312325 -0.26691197 17.15185547 -0.30175781 C26.42157769 -0.51896702 33.5215509 -0.53717117 41.0234375 5.67578125 C41.46945312 6.21589844 41.91546875 6.75601563 42.375 7.3125 C42.83648437 7.84488281 43.29796875 8.37726562 43.7734375 8.92578125 C47.5502729 15.31272265 47.27946205 22.10386879 47.23046875 29.296875 C47.23059967 30.41528778 47.23073059 31.53370056 47.23086548 32.68600464 C47.22767454 36.37412715 47.20874479 40.06193992 47.1875 43.75 C47.17722766 46.32210247 47.16705667 48.89420534 47.15698242 51.46630859 C47.12916034 57.55687896 47.08796851 63.64725537 47.04191494 69.73771095 C47.00634278 74.61778017 46.98641438 79.49775177 46.97363281 84.37792969 C46.95540746 91.16181578 46.90904795 97.94503653 46.84439087 104.7286377 C46.82322132 107.3150911 46.81010989 109.90162367 46.80526733 112.48815918 C46.79602897 116.10994875 46.75541348 119.73011254 46.70703125 123.3515625 C46.71094879 124.41680145 46.71486633 125.48204041 46.71890259 126.57955933 C46.57001822 134.1306477 44.77328862 139.02236467 39.55769348 144.52041626 C34.43949854 149.15729017 29.24762416 150.25950118 22.5078125 150.1953125 C20.70957031 150.18564453 20.70957031 150.18564453 18.875 150.17578125 C17.6375 150.15902344 16.4 150.14226562 15.125 150.125 C13.86429687 150.11597656 12.60359375 150.10695312 11.3046875 150.09765625 C8.2029296 150.07415808 5.10156348 150.04130334 2 150 C4 148 4 148 6.8125 146.75 C12.14627111 143.82165508 15.09507468 139.69680213 17 134 C17.3038054 131.52628163 17.3038054 131.52628163 17.27415466 128.93486023 C17.28412979 127.93826385 17.29410492 126.94166748 17.30438232 125.91487122 C17.30537933 124.2915815 17.30537933 124.2915815 17.30639648 122.63549805 C17.31472 121.48694336 17.32304352 120.33838867 17.33161926 119.1550293 C17.35571924 115.35722465 17.36449149 111.55959176 17.37109375 107.76171875 C17.38006 105.12002002 17.38918185 102.47832182 17.39845276 99.83662415 C17.41580603 94.29773316 17.42267634 88.75888588 17.42553711 83.2199707 C17.42917025 76.83110149 17.45905391 70.44271329 17.50094169 64.05399102 C17.53990476 57.89395023 17.55113138 51.73414232 17.55226326 45.57398415 C17.55646655 42.95973922 17.56890501 40.34549392 17.58978081 37.73132896 C17.61668155 34.07135698 17.61187198 30.41270642 17.59936523 26.75268555 C17.61419952 25.67656509 17.62903381 24.60044464 17.64431763 23.49171448 C17.56479455 15.30571772 15.3924696 10.3924696 9.625 4.625 C6.42989822 2.64707985 3.64949542 1.8587048 0 1 C0 0.67 0 0.34 0 0 Z " fill="#02D0FA" transform="translate(301,32)"/>
<path d="M0 0 C8.44581941 5.98735666 15.12800855 13.61895652 17 24 C17.98538835 35.415345 16.0527888 45.2153548 8.69140625 54.21875 C1.15952168 62.15071158 -6.53219423 65.09694582 -17.375 65.4375 C-28.40732559 65.15094609 -35.85249638 62.18678806 -43.83203125 54.51171875 C-50.92447755 46.29470439 -52.56544398 37.55000788 -52.34765625 26.97265625 C-51.61190169 18.56521371 -48.10835024 10.83069795 -42 5 C-29.57913883 -5.00089219 -14.46994189 -7.19638443 0 0 Z " fill="#F5A96B" transform="translate(88,321)"/>
<path d="M0 0 C7.26600428 5.2156327 12.17627074 12.59580751 14.25 21.3125 C15.28605411 32.20852971 14.5428353 41.0784425 8.0625 50 C2.4550606 56.73598066 -3.9677286 61.77847879 -12.75 63.3125 C-24.9806689 64.27072433 -34.13039933 63.25762202 -43.67578125 55.328125 C-51.02981388 48.18183341 -54.81223572 39.56590275 -55.125 29.375 C-54.76417663 17.54300017 -50.45947339 9.72369952 -42.125 1.5625 C-29.98220943 -8.54492758 -13.00303631 -7.98012429 0 0 Z " fill="#CA6D58" transform="translate(461.75,322.6875)"/>
<path d="M0 0 C8.20215265 5.69637167 13.44386818 13.46318746 15.21484375 23.27734375 C16.48336078 33.52638478 14.69980259 42.17665121 8.74609375 50.6796875 C3.21667684 57.69019822 -4.37274918 62.34751394 -13.25390625 63.6796875 C-24.64456331 64.60121281 -33.6121978 63.04352161 -42.56640625 55.6796875 C-49.95287046 48.49317535 -54.06643677 40.03455885 -54.41796875 29.69140625 C-53.82175001 18.74653363 -49.98293225 9.84897851 -41.94140625 2.3671875 C-29.56077948 -7.53731391 -13.48350965 -7.89848572 0 0 Z " fill="#FED1A3" transform="translate(275.25390625,322.3203125)"/>
<path d="M0 0 C3.3125 1.625 3.3125 1.625 6 4 C6.94875 4.825 7.8975 5.65 8.875 6.5 C11.84447991 10.2671072 11.5603907 14.38005571 11.56640625 19 C10.16962101 26.39814529 3.77929525 31.51305244 -1.34375 36.609375 C-2.55291077 37.82140594 -2.55291077 37.82140594 -3.78649902 39.05792236 C-5.48525388 40.75803385 -7.18651962 42.45563972 -8.89013672 44.15087891 C-11.49810187 46.74810968 -14.09519724 49.3558673 -16.69140625 51.96484375 C-18.34571303 53.61782939 -20.00063987 55.27019478 -21.65625 56.921875 C-22.43238647 57.70205994 -23.20852295 58.48224487 -24.00817871 59.28607178 C-25.09951111 60.36794769 -25.09951111 60.36794769 -26.21289062 61.47167969 C-26.84924438 62.10644226 -27.48559814 62.74120483 -28.14123535 63.39520264 C-32.65471225 67.29199281 -37.03360452 67.75610493 -42.87109375 67.6015625 C-48.12813224 66.59084599 -50.86422282 63.49705188 -54.41552734 59.66650391 C-56.33331995 57.64942343 -58.32818944 55.72455355 -60.33203125 53.79296875 C-61.88905911 52.27971341 -63.4450422 50.76538237 -65 49.25 C-66.13248169 48.1508728 -66.13248169 48.1508728 -67.2878418 47.02954102 C-68.35192261 45.97077759 -68.35192261 45.97077759 -69.4375 44.890625 C-70.07558594 44.26188477 -70.71367188 43.63314453 -71.37109375 42.98535156 C-75.02789462 38.52835146 -75.44055614 34.00378555 -75.31640625 28.43359375 C-74.68185355 23.55302173 -71.96066331 20.86694006 -68.4375 17.6875 C-63.90332146 14.54845332 -59.34919244 14.2345871 -54 15 C-48.22365139 17.46797951 -43.68977984 21.92742605 -39 26 C-38.33468262 25.31897217 -37.66936523 24.63794434 -36.98388672 23.9362793 C-34.49801825 21.39584216 -32.00201422 18.86556645 -29.50292969 16.33813477 C-28.42562178 15.24580142 -27.35102928 14.15078274 -26.27929688 13.05297852 C-24.73244348 11.46946642 -23.17586878 9.89607952 -21.6171875 8.32421875 C-21.14505829 7.83660568 -20.67292908 7.34899261 -20.18649292 6.84660339 C-14.15446101 0.8116003 -8.34686115 -1.21186075 0 0 Z " fill="#E8F5FE" transform="translate(121,151)"/>
<path d="M0 0 C3.96521085 -0.0499542 7.93029631 -0.08597787 11.89575195 -0.10986328 C13.89736377 -0.12470245 15.89888812 -0.15013361 17.90039062 -0.17578125 C30.56905708 -0.23960325 40.3593355 1.07382511 50.046875 9.85546875 C57.01323585 17.31304735 60.09219776 25.67436962 60.16113281 35.8125 C60.17074036 36.9571875 60.1803479 38.101875 60.19024658 39.28125 C60.19449646 40.5084375 60.19874634 41.735625 60.203125 43 C60.20882507 44.2684375 60.21452515 45.536875 60.22039795 46.84375 C60.22983534 49.52347397 60.23673931 52.20308628 60.24023438 54.8828125 C60.24572808 58.30925529 60.26978878 61.73530254 60.29820633 65.16162109 C60.32134448 68.44105059 60.32328199 71.72050031 60.328125 75 C60.3404718 76.2271875 60.3528186 77.454375 60.36553955 78.71875 C60.36253845 79.8634375 60.35953735 81.008125 60.35644531 82.1875 C60.36191376 83.69376953 60.36191376 83.69376953 60.36749268 85.23046875 C59.85682868 89.07898053 58.41057873 91.91119676 55.31542969 94.30029297 C51.88032583 95.33835788 48.50549554 95.24453759 44.953125 95.1953125 C43.79632233 95.19106766 43.79632233 95.19106766 42.6161499 95.18673706 C40.16060668 95.17557013 37.7054324 95.15047229 35.25 95.125 C33.58203653 95.11496568 31.91406732 95.10584061 30.24609375 95.09765625 C26.16392103 95.07564225 22.082023 95.04113667 18 95 C17.90107826 89.3766798 17.82850658 83.75386667 17.78027344 78.12988281 C17.76016548 76.21703265 17.73287493 74.30424389 17.69824219 72.39160156 C17.64968751 69.64112189 17.62702342 66.89145523 17.609375 64.140625 C17.58872986 63.28631897 17.56808472 62.43201294 17.54681396 61.55181885 C17.54458485 55.64539823 17.54458485 55.64539823 19.79785156 52.45214844 C22.95605184 50.36955695 25.30670171 50.58963352 29 51 C29.66 51.66 30.32 52.32 31 53 C32.12860259 31.37879858 32.12860259 31.37879858 22.6875 12.5625 C16.10333479 5.73762337 9.1515179 3.06918511 0 1 C0 0.67 0 0.34 0 0 Z " fill="#FD3581" transform="translate(267,385)"/>
<path d="M0 0 C3.94690003 -0.05003872 7.89367309 -0.08601633 11.84082031 -0.10986328 C13.83144637 -0.12467591 15.82198437 -0.15010992 17.8125 -0.17578125 C30.98368675 -0.2423024 41.73955267 1.02026529 51.75 10.1875 C57.66443098 16.44579325 61.09904403 24.40246667 61.17700195 32.95263672 C61.19625481 34.79001907 61.19625481 34.79001907 61.21589661 36.66452026 C61.22406369 38.00290522 61.23150749 39.34129476 61.23828125 40.6796875 C61.24235678 41.35471439 61.2464323 42.02974129 61.25063133 42.72522354 C61.27146865 46.29711855 61.28578127 49.86897538 61.29516602 53.44091797 C61.30623494 57.12534783 61.34064601 60.80917449 61.38033772 64.49339104 C61.40650773 67.33132026 61.41485804 70.16910566 61.41844749 73.00714493 C61.42331135 74.36510423 61.43491982 75.72305719 61.45348549 77.08089828 C61.47788346 78.98330842 61.47449146 80.88601301 61.4699707 82.78857422 C61.47583694 83.86984589 61.48170319 84.95111755 61.48774719 86.06515503 C60.88238562 89.70770265 59.53675207 91.3680313 57 94 C53.82709287 95.58645357 50.41174616 95.12078213 46.9296875 95.09765625 C46.13345978 95.0962413 45.33723206 95.09482635 44.51687622 95.09336853 C41.9695462 95.08776345 39.42230353 95.07521014 36.875 95.0625 C35.14974085 95.05748565 33.42448033 95.05292263 31.69921875 95.04882812 C27.46611209 95.03779237 23.23307086 95.02052436 19 95 C18.90095026 89.53740707 18.82844625 84.07533951 18.78027344 78.61206055 C18.76018695 76.75454602 18.73291222 74.89709449 18.69824219 73.03979492 C18.64959263 70.36621537 18.62700191 67.69347344 18.609375 65.01953125 C18.57840729 63.7786248 18.57840729 63.7786248 18.54681396 62.51264954 C18.54527144 58.5280777 18.72396235 56.46518703 20.80175781 52.96362305 C23 51 23 51 26.5625 50.5625 C30 51 30 51 33 53 C32.9475102 49.04064044 32.85229473 45.08336118 32.75 41.125 C32.73582031 40.01640625 32.72164062 38.9078125 32.70703125 37.765625 C32.39556715 27.17584559 29.65197316 17.66846448 22 10 C15.34086417 4.75593054 8.22621908 2.61132126 0 1 C0 0.67 0 0.34 0 0 Z " fill="#03D0FB" transform="translate(80,385)"/>
<path d="M0 0 C3.96509139 -0.09990539 7.92968163 -0.17194834 11.89575195 -0.21972656 C13.89756051 -0.24940781 15.89901919 -0.30027058 17.90039062 -0.3515625 C25.54781345 -0.42861462 31.38323091 0.02904075 38 4 C38.97779419 4.56763062 38.97779419 4.56763062 39.9753418 5.14672852 C47.30119567 9.59990334 51.93553697 17.83986158 54 26 C54.44558232 30.72334588 54.44430817 35.4261872 54.43359375 40.16796875 C54.43816264 41.53461464 54.44347031 42.90125824 54.44947815 44.26789856 C54.45836864 47.1180664 54.45603014 49.96795336 54.44604492 52.81811523 C54.4345158 56.4632573 54.45484593 60.10743624 54.48396206 63.7524519 C54.50233082 66.56897585 54.50203114 69.38526871 54.49632454 72.20183754 C54.49609761 74.19653579 54.51296913 76.19121241 54.53013611 78.18583679 C54.51606468 80.00846794 54.51606468 80.00846794 54.50170898 81.86791992 C54.50154282 82.93411057 54.50137665 84.00030121 54.50120544 85.09880066 C53.87730013 88.71024124 52.51400526 90.38320579 50 93 C46.82709287 94.58645357 43.41174616 94.12078213 39.9296875 94.09765625 C39.13345978 94.0962413 38.33723206 94.09482635 37.51687622 94.09336853 C34.9695462 94.08776345 32.42230353 94.07521014 29.875 94.0625 C28.14974085 94.05748565 26.42448033 94.05292263 24.69921875 94.04882812 C20.46611209 94.03779237 16.23307086 94.02052436 12 94 C11.87618851 88.53743725 11.78556174 83.07569512 11.7253418 77.61206055 C11.70023298 75.75449391 11.66613866 73.89702573 11.62280273 72.03979492 C11.56198876 69.36612642 11.5337548 66.69376635 11.51171875 64.01953125 C11.48591232 63.19226028 11.4601059 62.36498932 11.43351746 61.51264954 C11.43142479 57.18810517 11.61156605 55.50656278 14.33129883 51.9597168 C17.52996063 49.61083213 19.11668246 49.48222433 23 50 C23.66 50.33 24.32 50.66 25 51 C25.08809201 47.18764896 25.1407549 43.37556447 25.1875 39.5625 C25.21263672 38.49322266 25.23777344 37.42394531 25.26367188 36.32226562 C25.36762781 24.99106905 22.81109477 17.31242798 15 9 C10.51133322 4.92676288 5.70863913 2.90287971 0 1 C0 0.67 0 0.34 0 0 Z " fill="#FFD15B" transform="translate(458,386)"/>
<path d="M0 0 C8.91 0 17.82 0 27 0 C27.01417969 4.16625 27.02835938 8.3325 27.04296875 12.625 C27.06824484 15.96432648 27.0984771 19.30352699 27.13204193 22.64277649 C27.1660274 26.1582594 27.19144681 29.67330928 27.19555664 33.18896484 C27.20068652 37.23066084 27.24589631 41.2710732 27.29296875 45.3125 C27.2890361 46.5617627 27.28510345 47.81102539 27.28105164 49.09814453 C27.42762901 57.90796704 29.04925646 63.15322339 35.375 69.3125 C38.58965338 71.48150232 38.58965338 71.48150232 45 74 C45 82.58 45 91.16 45 100 C37.3037313 101.92406718 29.22122154 97.96275268 22.5625 94.0625 C11.233609 86.69872085 4.844233 77.93811752 1 65 C0.82235611 64.41442322 0.64471222 63.82884644 0.46168518 63.2255249 C-0.11940626 60.42440951 -0.11943798 57.80797994 -0.11352539 54.94628906 C-0.11344986 53.72532532 -0.11337433 52.50436157 -0.11329651 51.24639893 C-0.10813522 49.93274353 -0.10297394 48.61908813 -0.09765625 47.265625 C-0.09579021 45.9037074 -0.09436718 44.54178912 -0.09336853 43.17987061 C-0.08955803 39.60258111 -0.07974032 36.02533248 -0.06866455 32.44805908 C-0.05841884 28.79480553 -0.05380929 25.14154515 -0.04882812 21.48828125 C-0.03864791 14.32548479 -0.01907255 7.16280042 0 0 Z " fill="#05E39C" transform="translate(138,108)"/>
<path d="M0 0 C8.58 0 17.16 0 26 0 C26.11368897 7.85923095 26.205107 15.71799941 26.25906086 23.57783031 C26.28497731 27.22887808 26.32003756 30.8793264 26.37719727 34.5300293 C26.43217045 38.06384848 26.46155487 41.59709711 26.47438622 45.13131142 C26.48790273 47.11248753 26.52682781 49.0934392 26.56648254 51.07426453 C26.57059737 64.58828267 22.12739792 75.97357624 13 86 C4.42608748 94.20335594 -6.91985181 100 -19 100 C-19 91.09 -19 82.18 -19 73 C-15.7 71.35 -12.4 69.7 -9 68 C-3.11229134 62.36283213 -0.91449451 56.10486682 -0.56762695 48.13476562 C-0.52654406 45.89214741 -0.50085465 43.64920924 -0.48828125 41.40625 C-0.47033005 40.21898315 -0.45237885 39.03171631 -0.43388367 37.80847168 C-0.37996471 34.03901658 -0.3459431 30.26968681 -0.3125 26.5 C-0.27931079 23.93487847 -0.24481965 21.36977343 -0.20898438 18.8046875 C-0.12181279 12.5364421 -0.06158332 6.26875731 0 0 Z " fill="#FC3581" transform="translate(348,109)"/>
<path d="M0 0 C4.35719642 2.28279204 6.50509735 5.17287759 8.859375 9.31640625 C9.41625 8.57390625 9.973125 7.83140625 10.546875 7.06640625 C13.82142728 3.17234408 17.23168445 -0.44363997 22.46875 -0.921875 C33.13275262 -1.17388501 33.13275262 -1.17388501 37.859375 3.31640625 C39.36861551 5.26228238 40.60131921 7.18738875 41.859375 9.31640625 C42.375 8.59453125 42.890625 7.87265625 43.421875 7.12890625 C47.11163051 2.87149604 50.01824306 -0.24121616 55.76953125 -1.13671875 C61.92252585 -1.35020555 66.16637987 -1.02461425 70.859375 3.31640625 C75.25971656 8.31138856 76.21060738 11.22636703 76.14453125 17.77734375 C75.54768368 23.09173989 71.80665625 26.96719791 67.859375 30.31640625 C63.74734419 32.60086781 59.47000229 33.13154478 54.859375 32.31640625 C48.67486591 29.80219566 45.6543087 26.25564037 42.859375 20.31640625 C42.5190625 20.8475 42.17875 21.37859375 41.828125 21.92578125 C38.25339431 27.13576108 34.97078983 30.41402031 28.859375 32.31640625 C23.81610753 33.02423326 20.63003973 32.18317184 16.4296875 29.52734375 C13.1558101 27.00271193 11.12569681 23.71588897 8.859375 20.31640625 C8.055 21.92515625 8.055 21.92515625 7.234375 23.56640625 C4.5584326 28.27073204 0.97105004 30.61251457 -4.140625 32.31640625 C-9.4093848 32.7140485 -12.70704424 32.24068292 -17.140625 29.31640625 C-21.40611358 25.01105329 -24.27487562 21.75822693 -24.453125 15.56640625 C-24.39684552 10.68416115 -23.43650355 8.05767379 -20.140625 4.31640625 C-14.12514534 -0.98294488 -7.88634268 -2.51844885 0 0 Z " fill="#E7F5FE" transform="translate(230.140625,91.68359375)"/>
<path d="M0 0 C8.66456261 4.57418533 13.9102078 10.87971613 17.30859375 20.09375 C19.3704663 28.76060409 19.28996334 39.01336612 15 47 C9.85955476 55.11863971 3.08104882 61.79507591 -6.31640625 64.53125 C-16.37162793 66.2876206 -26.63624632 66.06398131 -35.3671875 60.48828125 C-40.29929431 56.8902689 -43.74383745 53.14683758 -47 48 C-44 48 -44 48 -40.625 49 C-31.02259286 51.43590475 -21.69139713 50.80705697 -13 46 C-5.25903443 41.2709242 -0.11122212 35.33870633 2.49609375 26.578125 C4.29665372 17.36595772 2.96087815 8.79451307 0 0 Z " fill="#BB5D4C" transform="translate(458,321)"/>
<path d="M0 0 C6.17277603 1.68348437 10.31607512 6.18914078 13.5234375 11.54296875 C18.09119943 20.48046825 19.58306231 29.01643371 17.31640625 39.015625 C13.82993666 49.37376701 7.74532539 56.95962357 -1.984375 62.03515625 C-11.4071203 65.84322061 -23.1273693 65.36465059 -32.421875 61.46875 C-38.84005729 57.812331 -44.66172893 53.16648483 -47 46 C-45.845 46.495 -44.69 46.99 -43.5 47.5 C-34.17441241 50.5399947 -24.15830665 50.56369583 -15.3125 46.25 C-6.30612955 41.20541344 -1.49702154 35.12905286 2.375 25.625 C3.9397421 16.54949582 3.2017944 8.6143516 0 0 Z " fill="#E99B58" transform="translate(87,322)"/>
<path d="M0 0 C6.75850019 2.25675137 10.92584242 7.31392568 14.3671875 13.4296875 C18.40047136 22.64441632 19.12494082 32.40751998 16 42 C11.93721954 51.62736693 5.75516327 57.5558158 -3.5703125 62.0546875 C-12.66261877 65.59220859 -23.39850203 65.1352719 -32.3515625 61.47265625 C-38.32140565 58.1531417 -44.30060541 53.42018172 -47 47 C-46.44054687 47.144375 -45.88109375 47.28875 -45.3046875 47.4375 C-34.39426354 49.96338593 -22.9303977 50.91455159 -13 45 C-5.59586153 39.99167219 -0.49555213 33.64428894 2 25 C3.08007719 16.4679617 2.67664602 8.17024613 0 0 Z " fill="#FEBC86" transform="translate(273,322)"/>
<path d="M0 0 C2.33780882 2.10033447 3.78975626 3.80248016 4.34387207 6.95864868 C4.46291792 9.3227899 4.4496802 11.65313193 4.390625 14.01953125 C4.38496521 14.87810226 4.37930542 15.73667328 4.37347412 16.6212616 C4.35115787 19.3522516 4.30097167 22.08190939 4.25 24.8125 C4.2299288 26.66860079 4.21167911 28.52472223 4.1953125 30.38085938 C4.15130881 34.92108296 4.08231521 39.46031593 4 44 C-0.95 44 -5.9 44 -11 44 C-11.09892174 38.3766798 -11.17149342 32.75386667 -11.21972656 27.12988281 C-11.23983452 25.21703265 -11.26712507 23.30424389 -11.30175781 21.39160156 C-11.35031249 18.64112189 -11.37297658 15.89145523 -11.390625 13.140625 C-11.41127014 12.28631897 -11.43191528 11.43201294 -11.45318604 10.55181885 C-11.45541732 4.63965321 -11.45541732 4.63965321 -9.19433594 1.46386719 C-5.94284638 -0.70523955 -3.81260817 -0.6127406 0 0 Z " fill="#FD0364" transform="translate(296,436)"/>
<path d="M0 0 C3.5 0.5625 3.5 0.5625 5.69433594 2.02636719 C8.38919872 5.81141784 8.00020384 9.1686992 7.890625 13.703125 C7.88496521 14.58530701 7.87930542 15.46748901 7.87347412 16.37640381 C7.85111591 19.18899213 7.80092132 22.00029795 7.75 24.8125 C7.72993425 26.72133574 7.71168361 28.63019149 7.6953125 30.5390625 C7.651253 35.21403445 7.58222984 39.88804992 7.5 44.5625 C2.55 44.5625 -2.4 44.5625 -7.5 44.5625 C-7.59904974 39.09990707 -7.67155375 33.63783951 -7.71972656 28.17456055 C-7.73981305 26.31704602 -7.76708778 24.45959449 -7.80175781 22.60229492 C-7.85040737 19.92871537 -7.87299809 17.25597344 -7.890625 14.58203125 C-7.91127014 13.75476028 -7.93191528 12.92748932 -7.95318604 12.07514954 C-7.95472871 8.09017734 -7.77978096 6.03176484 -5.69433594 2.53393555 C-3.5 0.5625 -3.5 0.5625 0 0 Z " fill="#FE0464" transform="translate(219.5,435.4375)"/>
<path d="M0 0 C2.69093555 1.99369709 4.68454042 3.57949122 5.43496704 6.95864868 C5.57854693 9.32789849 5.56228918 11.64707527 5.48828125 14.01953125 C5.47766914 15.30738777 5.47766914 15.30738777 5.46684265 16.6212616 C5.43894402 19.35257603 5.37621691 22.08180958 5.3125 24.8125 C5.28741114 26.6685901 5.26459899 28.52471246 5.24414062 30.38085938 C5.18913253 34.92136972 5.10289364 39.46033257 5 44 C0.05 44 -4.9 44 -10 44 C-10.09892174 38.3766798 -10.17149342 32.75386667 -10.21972656 27.12988281 C-10.23983452 25.21703265 -10.26712507 23.30424389 -10.30175781 21.39160156 C-10.35031249 18.64112189 -10.37297658 15.89145523 -10.390625 13.140625 C-10.41127014 12.28631897 -10.43191528 11.43201294 -10.45318604 10.55181885 C-10.45542193 4.62744337 -10.45542193 4.62744337 -8.15917969 1.46386719 C-5.16134366 -0.568587 -3.55168057 -0.65234949 0 0 Z " fill="#03C0FA" transform="translate(37,436)"/>
<path d="M0 0 C3.74314112 0.7167717 4.69920156 1.47875409 6.9375 4.5625 C7.49088307 7.61362195 7.40284628 10.61112212 7.328125 13.703125 C7.32246521 14.58530701 7.31680542 15.46748901 7.31097412 16.37640381 C7.28861591 19.18899213 7.23842132 22.00029795 7.1875 24.8125 C7.16743425 26.72133574 7.14918361 28.63019149 7.1328125 30.5390625 C7.088753 35.21403445 7.01972984 39.88804992 6.9375 44.5625 C1.9875 44.5625 -2.9625 44.5625 -8.0625 44.5625 C-8.18631149 39.09993725 -8.27693826 33.63819512 -8.3371582 28.17456055 C-8.36226702 26.31699391 -8.39636134 24.45952573 -8.43969727 22.60229492 C-8.50051124 19.92862642 -8.5287452 17.25626635 -8.55078125 14.58203125 C-8.57658768 13.75476028 -8.6023941 12.92748932 -8.62898254 12.07514954 C-8.6310763 7.74836905 -8.45736663 6.07375358 -5.72338867 2.53393555 C-3.0625 0.5625 -3.0625 0.5625 0 0 Z " fill="#FFC345" transform="translate(478.0625,435.4375)"/>
<path d="M0 0 C2.33780882 2.10033447 3.78975626 3.80248016 4.34387207 6.95864868 C4.46291792 9.3227899 4.4496802 11.65313193 4.390625 14.01953125 C4.38496521 14.87810226 4.37930542 15.73667328 4.37347412 16.6212616 C4.35115787 19.3522516 4.30097167 22.08190939 4.25 24.8125 C4.2299288 26.66860079 4.21167911 28.52472223 4.1953125 30.38085938 C4.15130881 34.92108296 4.08231521 39.46031593 4 44 C-0.95 44 -5.9 44 -11 44 C-11.09892174 38.3766798 -11.17149342 32.75386667 -11.21972656 27.12988281 C-11.23983452 25.21703265 -11.26712507 23.30424389 -11.30175781 21.39160156 C-11.35031249 18.64112189 -11.37297658 15.89145523 -11.390625 13.140625 C-11.41127014 12.28631897 -11.43191528 11.43201294 -11.45318604 10.55181885 C-11.45541732 4.63965321 -11.45541732 4.63965321 -9.19433594 1.46386719 C-5.94284638 -0.70523955 -3.81260817 -0.6127406 0 0 Z " fill="#FFC344" transform="translate(409,436)"/>
<path d="M0 0 C3.5 0.5625 3.5 0.5625 5.69433594 2.02636719 C8.38919872 5.81141784 8.00020384 9.1686992 7.890625 13.703125 C7.88496521 14.58530701 7.87930542 15.46748901 7.87347412 16.37640381 C7.85111591 19.18899213 7.80092132 22.00029795 7.75 24.8125 C7.72993425 26.72133574 7.71168361 28.63019149 7.6953125 30.5390625 C7.651253 35.21403445 7.58222984 39.88804992 7.5 44.5625 C2.55 44.5625 -2.4 44.5625 -7.5 44.5625 C-7.59904974 39.09990707 -7.67155375 33.63783951 -7.71972656 28.17456055 C-7.73981305 26.31704602 -7.76708778 24.45959449 -7.80175781 22.60229492 C-7.85040737 19.92871537 -7.87299809 17.25597344 -7.890625 14.58203125 C-7.91127014 13.75476028 -7.93191528 12.92748932 -7.95318604 12.07514954 C-7.95472871 8.09017734 -7.77978096 6.03176484 -5.69433594 2.53393555 C-3.5 0.5625 -3.5 0.5625 0 0 Z " fill="#02C0FA" transform="translate(106.5,435.4375)"/>
</svg>
